<?xml version="1.0" encoding="utf-8"?><svg xmlns:xlink="http://www.w3.org/1999/xlink" id="escena_dientes" image-rendering="auto" baseProfile="basic" version="1.1" x="0px" y="0px" width="546" height="307" xmlns="http://www.w3.org/2000/svg"><g id="Scene_1" overflow="visible"><path fill="#96E072" d="M546.951,14.879Q546.951,-0.012 528.075,-0.012L18.855,-0.012Q-0.021,-0.012 -0.021,14.879L-0.021,292.766Q-0.021,307.656 18.855,307.656L528.075,307.656Q546.951,307.656 546.951,292.766L546.951,14.879"/><g style="display:none;"><path fill="none" stroke="#26AA6B" stroke-width="10" stroke-linecap="round" stroke-linejoin="round" d="M356.45,164.65L341.25,177.55M356.45,164.65L341.25,151.8"/><animate attributeName="display" repeatCount="indefinite" dur="2.458s" keyTimes="0;0.898;0.949;1" values="none;inline;none;none"/></g><g style="display:none;"><path fill="none" stroke="#26AA6B" stroke-width="10" stroke-linecap="round" stroke-linejoin="round" d="M356.45,164.65L341.25,177.55M356.45,164.65L341.25,151.8"/><path fill="none" stroke="#26AA6B" stroke-width="10" stroke-linecap="round" stroke-linejoin="round" d="M312.5,165.1L323.55,165.1"/><animate attributeName="display" repeatCount="indefinite" dur="2.458s" keyTimes="0;0.847;0.898;1" values="none;inline;none;none"/></g><g style="display:none;"><path fill="none" stroke="#26AA6B" stroke-width="10" stroke-linecap="round" stroke-linejoin="round" d="M356.45,164.65L341.25,177.55M356.45,164.65L341.25,151.8"/><path fill="none" stroke="#26AA6B" stroke-width="10" stroke-linecap="round" stroke-linejoin="round" d="M312.5,165.1L323.55,165.1"/><path fill="none" stroke="#26AA6B" stroke-width="10" stroke-linecap="round" stroke-linejoin="round" d="M282.1,165.1L293.15,165.1"/><animate attributeName="display" repeatCount="indefinite" dur="2.458s" keyTimes="0;0.797;0.847;1" values="none;inline;none;none"/></g><g style="display:none;"><path fill="none" stroke="#26AA6B" stroke-width="10" stroke-linecap="round" stroke-linejoin="round" d="M356.45,164.65L341.25,177.55M356.45,164.65L341.25,151.8"/><path fill="none" stroke="#26AA6B" stroke-width="10" stroke-linecap="round" stroke-linejoin="round" d="M251.7,165.1L262.75,165.1"/><path fill="none" stroke="#26AA6B" stroke-width="10" stroke-linecap="round" stroke-linejoin="round" d="M312.5,165.1L323.55,165.1"/><path fill="none" stroke="#26AA6B" stroke-width="10" stroke-linecap="round" stroke-linejoin="round" d="M282.1,165.1L293.15,165.1"/><animate attributeName="display" repeatCount="indefinite" dur="2.458s" keyTimes="0;0.746;0.797;1" values="none;inline;none;none"/></g><g style="display:none;"><path fill="none" stroke="#26AA6B" stroke-width="10" stroke-linecap="round" stroke-linejoin="round" d="M356.45,164.65L341.25,177.55M356.45,164.65L341.25,151.8"/><path fill="none" stroke="#26AA6B" stroke-width="10" stroke-linecap="round" stroke-linejoin="round" d="M221.3,165.1L232.35,165.1"/><path fill="none" stroke="#26AA6B" stroke-width="10" stroke-linecap="round" stroke-linejoin="round" d="M251.7,165.1L262.75,165.1"/><path fill="none" stroke="#26AA6B" stroke-width="10" stroke-linecap="round" stroke-linejoin="round" d="M312.5,165.1L323.55,165.1"/><path fill="none" stroke="#26AA6B" stroke-width="10" stroke-linecap="round" stroke-linejoin="round" d="M282.1,165.1L293.15,165.1"/><animate attributeName="display" repeatCount="indefinite" dur="2.458s" keyTimes="0;0.695;0.746;1" values="none;inline;none;none"/></g><g style="display:none;"><path fill="none" stroke="#26AA6B" stroke-width="10" stroke-linecap="round" stroke-linejoin="round" d="M356.45,164.65L341.25,177.55M356.45,164.65L341.25,151.8"/><path fill="none" stroke="#26AA6B" stroke-width="10" stroke-linecap="round" stroke-linejoin="round" d="M190.9,165.1L201.95,165.1"/><path fill="none" stroke="#26AA6B" stroke-width="10" stroke-linecap="round" stroke-linejoin="round" d="M221.3,165.1L232.35,165.1"/><path fill="none" stroke="#26AA6B" stroke-width="10" stroke-linecap="round" stroke-linejoin="round" d="M251.7,165.1L262.75,165.1"/><path fill="none" stroke="#26AA6B" stroke-width="10" stroke-linecap="round" stroke-linejoin="round" d="M312.5,165.1L323.55,165.1"/><path fill="none" stroke="#26AA6B" stroke-width="10" stroke-linecap="round" stroke-linejoin="round" d="M282.1,165.1L293.15,165.1"/><animate attributeName="display" repeatCount="indefinite" dur="2.458s" keyTimes="0;0.305;0.695;1" values="none;inline;none;none"/></g><g style="display:none;"><path fill="none" stroke="#26AA6B" stroke-width="10" stroke-linecap="round" stroke-linejoin="round" d="M190.9,165.1L201.95,165.1"/><path fill="none" stroke="#26AA6B" stroke-width="10" stroke-linecap="round" stroke-linejoin="round" d="M221.3,165.1L232.35,165.1"/><path fill="none" stroke="#26AA6B" stroke-width="10" stroke-linecap="round" stroke-linejoin="round" d="M251.7,165.1L262.75,165.1"/><path fill="none" stroke="#26AA6B" stroke-width="10" stroke-linecap="round" stroke-linejoin="round" d="M312.5,165.1L323.55,165.1"/><path fill="none" stroke="#26AA6B" stroke-width="10" stroke-linecap="round" stroke-linejoin="round" d="M282.1,165.1L293.15,165.1"/><animate attributeName="display" repeatCount="indefinite" dur="2.458s" keyTimes="0;0.254;0.305;1" values="none;inline;none;none"/></g><g style="display:none;"><path fill="none" stroke="#26AA6B" stroke-width="10" stroke-linecap="round" stroke-linejoin="round" d="M190.9,165.1L201.95,165.1"/><path fill="none" stroke="#26AA6B" stroke-width="10" stroke-linecap="round" stroke-linejoin="round" d="M221.3,165.1L232.35,165.1"/><path fill="none" stroke="#26AA6B" stroke-width="10" stroke-linecap="round" stroke-linejoin="round" d="M251.7,165.1L262.75,165.1"/><path fill="none" stroke="#26AA6B" stroke-width="10" stroke-linecap="round" stroke-linejoin="round" d="M282.1,165.1L293.15,165.1"/><animate attributeName="display" repeatCount="indefinite" dur="2.458s" keyTimes="0;0.203;0.254;1" values="none;inline;none;none"/></g><g style="display:none;"><path fill="none" stroke="#26AA6B" stroke-width="10" stroke-linecap="round" stroke-linejoin="round" d="M190.9,165.1L201.95,165.1"/><path fill="none" stroke="#26AA6B" stroke-width="10" stroke-linecap="round" stroke-linejoin="round" d="M221.3,165.1L232.35,165.1"/><path fill="none" stroke="#26AA6B" stroke-width="10" stroke-linecap="round" stroke-linejoin="round" d="M251.7,165.1L262.75,165.1"/><animate attributeName="display" repeatCount="indefinite" dur="2.458s" keyTimes="0;0.153;0.203;1" values="none;inline;none;none"/></g><g style="display:none;"><path fill="none" stroke="#26AA6B" stroke-width="10" stroke-linecap="round" stroke-linejoin="round" d="M190.9,165.1L201.95,165.1"/><path fill="none" stroke="#26AA6B" stroke-width="10" stroke-linecap="round" stroke-linejoin="round" d="M221.3,165.1L232.35,165.1"/><animate attributeName="display" repeatCount="indefinite" dur="2.458s" keyTimes="0;0.102;0.153;1" values="none;inline;none;none"/></g><g style="display:none;"><path fill="none" stroke="#26AA6B" stroke-width="10" stroke-linecap="round" stroke-linejoin="round" d="M190.9,165.1L201.95,165.1"/><animate attributeName="display" repeatCount="indefinite" dur="2.458s" keyTimes="0;0.051;0.102;1" values="none;inline;none;none"/></g><path fill="none" stroke="#FFF" stroke-width="9.25" stroke-linecap="round" stroke-linejoin="round" d="M407.225,227.55L386.775,136.175"/><path fill="none" stroke="#FFF" stroke-width="9.25" stroke-linecap="round" stroke-linejoin="round" d="M488.4,227.55L508.85,136.175"/><path fill="none" stroke="#FFF" stroke-width="9.25" stroke-linecap="round" stroke-linejoin="round" d="M420.2,135.525L394.875,164.025"/><path fill="none" stroke="#FFF" stroke-width="9.25" stroke-linecap="round" stroke-linejoin="round" d="M462.975,136.175L402.725,204"/><path fill="none" stroke="#FFF" stroke-width="9.25" stroke-linecap="round" stroke-linejoin="round" d="M489.45,155.2L425.55,227.1"/><path fill="none" stroke="#FFF" stroke-width="9.25" stroke-linecap="round" stroke-linejoin="round" d="M491.6,201.575L468.9,227.1"/><path fill="none" stroke="#FFF" stroke-width="9.25" stroke-linecap="round" stroke-linejoin="round" d="M474.85,136.125L500.6,165.125"/><path fill="none" stroke="#FFF" stroke-width="9.25" stroke-linecap="round" stroke-linejoin="round" d="M432.175,136.9L493.275,205.7"/><path fill="none" stroke="#FFF" stroke-width="9.25" stroke-linecap="round" stroke-linejoin="round" d="M403.875,153.85L468.925,227.075"/><path fill="none" stroke="#FFF" stroke-width="9.25" stroke-linecap="round" stroke-linejoin="round" d="M403.9,202.675L425.55,227.075"/><path fill="none" stroke="#2A3B8E" stroke-width="14.65" stroke-linecap="round" stroke-linejoin="round" d="M377.7,135.75L517.95,135.75"/><path fill="#F16623" d="M90.85,96.625L90.325,96.625 90.25,96.625 89.675,96.625 89.075,96.675 88.5,96.7 87.925,96.725Q85.915,96.804 83.925,97 81.951,97.192 80.025,97.5 78.098,97.818 76.2,98.25 74.298,98.671 72.45,99.2 70.594,99.721 68.775,100.35 66.97,100.988 65.225,101.725 63.477,102.461 61.775,103.3 60.066,104.141 58.425,105.075 56.787,106.001 55.2,107.025 53.625,108.059 52.125,109.175 50.608,110.28 49.15,111.475 47.698,112.675 46.325,113.95 45.463,114.745 44.625,115.575 43.794,116.4 43,117.25 41.713,118.635 40.5,120.1 39.292,121.558 38.175,123.075 37.06,124.588 36.025,126.175 34.989,127.774 34.05,129.425 33.117,131.065 32.275,132.775 31.437,134.49 30.7,136.25 29.951,138.006 29.3,139.825 28.658,141.644 28.125,143.5 27.596,145.359 27.175,147.275 26.755,149.198 26.45,151.15 26.141,153.088 25.95,155.075 25.753,157.063 25.675,159.075L25.65,159.675 25.6,160.25 25.575,160.825 25.575,161.425 25.575,162.025 25.625,162.6 25.65,163.175 25.675,163.775Q25.753,165.786 25.95,167.775 26.154,169.762 26.475,171.7 26.781,173.64 27.2,175.55 27.633,177.466 28.175,179.325 28.708,181.18 29.35,183 29.987,184.818 30.725,186.575 31.474,188.335 32.325,190.05 33.179,191.772 34.125,193.425 35.064,195.064 36.1,196.65 37.134,198.238 38.25,199.75 39.367,201.268 40.575,202.725 41.787,204.178 43.075,205.55 43.884,206.416 44.725,207.25L45.55,208.05 46.4,208.85Q47.773,210.124 49.225,211.325 50.682,212.52 52.2,213.625 53.713,214.729 55.3,215.75 56.886,216.774 58.525,217.7 60.166,218.633 61.875,219.475 63.578,220.314 65.325,221.05 67.082,221.773 68.9,222.4 70.707,223.041 72.55,223.575 74.397,224.103 76.3,224.525 78.211,224.944 80.15,225.25 82.076,225.558 84.05,225.75 86.027,225.934 88.025,226L88.625,226.025 89.2,226.075 89.775,226.1 90.375,226.125 90.975,226.1 91.55,226.075 92.125,226.025 92.725,226Q94.723,225.922 96.7,225.725 98.674,225.533 100.6,225.225 102.54,224.919 104.45,224.5 106.353,224.079 108.2,223.55 110.043,223.016 111.85,222.375 113.655,221.737 115.4,221 117.159,220.264 118.875,219.425 120.571,218.583 122.2,217.65 123.838,216.723 125.425,215.7 127.012,214.666 128.525,213.55 130.042,212.445 131.5,211.25 132.953,210.049 134.325,208.775L135.175,207.975 136,207.15 136.825,206.325 137.625,205.475Q138.911,204.091 140.125,202.625 141.333,201.168 142.45,199.65 143.567,198.137 144.6,196.55 145.637,194.951 146.575,193.3 147.508,191.659 148.35,189.95 149.202,188.235 149.95,186.475 150.687,184.719 151.325,182.9 151.966,181.081 152.5,179.225 153.029,177.365 153.45,175.45 153.87,173.527 154.175,171.575 154.483,169.637 154.675,167.65 154.872,165.661 154.95,163.65L154.975,163.05 155.025,162.475 155.05,161.9 155.075,161.3 155.05,160.725 155.025,160.125 154.975,159.55 154.95,158.95Q154.713,152.895 153.425,147.175 152.141,141.446 149.9,136.15 147.642,130.849 144.525,126.075 141.419,121.314 137.55,117.175 136.756,116.326 135.925,115.5 135.088,114.67 134.225,113.875 130.08,110.046 125.325,106.975 120.57,103.911 115.3,101.7 110.024,99.478 104.325,98.2 98.627,96.943 92.6,96.725L92.025,96.7 91.425,96.65 90.85,96.625"/><path fill="#C75822" d="M92.6,96.75L88.5,96.7 87.9,96.8 87.95,159 65.65,159Q65.4,152.45 63.95,146.3 62.5,140.1 60,134.4 57.5,128.65 54,123.6 50.5,118.5 46.15,114.15 45.3,114.9 44.45,115.75 43.6,116.6 42.85,117.5 44.15,118.85 45.45,120.3 46.65,121.7 47.85,123.2 49,124.65 50.1,126.25 51.15,127.8 52.15,129.45 53.1,131.1 54,132.8 54.85,134.5 55.65,136.25 56.4,138 57.1,139.8 57.75,141.6 58.3,143.5 58.85,145.35 59.3,147.25 59.75,149.15 60.1,151.1 60.4,153.05 60.6,155.05 60.8,157 60.95,159.05L25.7,159.1 25.65,163.2 25.75,163.8 60.85,163.75Q60.75,165.75 60.6,167.7 60.35,169.7 60.05,171.65 59.75,173.6 59.3,175.5 58.85,177.4 58.3,179.3 57.75,181.15 57.1,182.95 56.4,184.75 55.65,186.55 54.9,188.25 54,190 53.1,191.65 52.15,193.3 51.2,194.95 50.1,196.55 49.05,198.1 47.9,199.6 46.7,201.05 45.45,202.5 44.2,203.95 42.9,205.35 43.65,206.2 44.5,207.05 45.35,207.85 46.2,208.65L46.25,208.65Q47.65,207.2 49.05,205.65 50.4,204.1 51.65,202.5 52.9,200.9 54.05,199.2 55.2,197.45 56.25,195.7 57.3,193.95 58.25,192.1 59.2,190.25 60.05,188.4 60.85,186.5 61.6,184.55 62.3,182.55 62.9,180.55 63.45,178.55 63.95,176.5 64.45,174.4 64.8,172.3 65.1,170.2 65.35,168.05 65.55,165.9 65.6,163.75L87.95,163.75 88,226 92.1,226.05 92.75,225.95 92.7,163.75 115,163.75Q115.05,165.9 115.25,168 115.45,170.15 115.85,172.25 116.15,174.35 116.65,176.45 117.15,178.5 117.75,180.5 118.35,182.5 119.05,184.45 119.75,186.4 120.6,188.35 121.45,190.2 122.4,192.05 123.3,193.9 124.4,195.65 125.45,197.4 126.6,199.15 127.75,200.8 129.05,202.45 130.25,204.05 131.65,205.6 133,207.1 134.5,208.6L137,206.1Q137.4,205.7 137.8,205.2 133.75,201.15 130.55,196.45 127.3,191.75 125,186.45 122.65,181.2 121.3,175.45 119.95,169.8 119.7,163.75L119.75,163.7 154.95,163.65 155.1,161.3 154.95,158.95 119.75,159Q119.8,156.95 120,154.95 120.2,152.95 120.5,151.05 120.85,149.05 121.3,147.15 121.7,145.25 122.3,143.4 122.85,141.55 123.5,139.75 124.15,137.9 124.95,136.15 125.7,134.4 126.6,132.7 127.45,131 128.45,129.35 129.4,127.7 130.5,126.15 131.55,124.55 132.7,123.1 133.85,121.6 135.1,120.15 136.35,118.7 137.7,117.35L135.25,114.85Q134.85,114.4 134.35,114.05 132.9,115.5 131.55,117.05 130.2,118.55 128.95,120.2 127.7,121.8 126.55,123.5 125.35,125.2 124.35,126.95 123.25,128.7 122.35,130.55 121.4,132.4 120.55,134.3 119.7,136.2 119,138.15 118.3,140.1 117.7,142.15 117.1,144.15 116.65,146.2 116.15,148.25 115.8,150.4 115.45,152.45 115.25,154.65 115.05,156.8 115,159L92.7,159 92.6,96.75"/><path fill="none" stroke="#221F1F" stroke-width="3.7" stroke-linecap="round" stroke-linejoin="round" d="M86.5,175.85Q84.9,174.25 84.85,171.85M86.5,175.85Q88.1,177.45 90.5,177.5 91.65,177.5 92.7,177.05 93.7,176.6 94.5,175.85 95.25,175.05 95.7,174.05 96.1,173.05 96.15,171.9"/><path fill="#221F1F" d="M81.6,152.1Q81.6,149.65 79.85,147.9 78.1,146.15 75.65,146.15 73.2,146.15 71.45,147.9 69.7,149.65 69.7,152.1 69.7,154.55 71.45,156.3 73.2,158.05 75.65,158.05 78.1,158.05 79.85,156.3 81.6,154.55 81.6,152.1"/><path fill="#221F1F" d="M113.1,152.1Q113.1,149.65 111.35,147.9 109.6,146.15 107.15,146.15 104.7,146.15 102.95,147.9 101.2,149.65 101.2,152.1 101.2,154.55 102.95,156.3 104.7,158.05 107.15,158.05 109.6,158.05 111.35,156.3 113.1,154.55 113.1,152.1"/></g></svg>